<?xml version="1.0" standalone="no"?>
<!DOCTYPE svg PUBLIC "-//W3C//DTD SVG 20010904//EN"
 "http://www.w3.org/TR/2001/REC-SVG-20010904/DTD/svg10.dtd">
<svg version="1.0" xmlns="http://www.w3.org/2000/svg"
 width="1200.000000pt" height="1200.000000pt" viewBox="0 0 1200.000000 1200.000000"
 preserveAspectRatio="xMidYMid meet">
<metadata>
Created by potrace 1.14, written by Peter Selinger 2001-2017
</metadata>
<g transform="translate(0.000000,1200.000000) scale(0.100000,-0.100000)"
fill="#000000" stroke="none">
<path d="M3000 6455 l0 -2995 3000 0 3000 0 0 2995 0 2995 -3000 0 -3000 0 0
-2995z m2370 1875 c69 -4 265 -8 435 -9 279 -1 411 4 714 25 l94 7 -5 -75 c-3
-50 -12 -87 -24 -109 -19 -32 -24 -34 -93 -41 -172 -15 -251 -42 -288 -96 -68
-102 -99 -240 -359 -1585 -270 -1395 -276 -1427 -272 -1533 4 -115 29 -140
175 -171 111 -23 584 -24 694 0 288 61 463 216 710 628 74 124 90 139 149 139
36 0 120 -18 139 -29 11 -7 -31 -99 -196 -427 -115 -231 -224 -458 -243 -506
l-34 -88 -1329 -2 c-1235 -3 -1330 -2 -1338 14 -11 20 13 156 33 187 9 14 23
21 45 21 45 0 235 38 275 54 18 8 41 23 51 33 27 31 63 129 91 253 22 95 325
1645 501 2555 66 340 71 467 22 500 -32 21 -133 45 -224 53 l-78 7 1 70 c0 41
8 86 17 109 l17 39 98 -8 c53 -4 153 -11 222 -15z"/>
</g>
</svg>
